<svg xmlns="http://www.w3.org/2000/svg" viewBox="0 0 24 24"><symbol id="search" viewBox="0 0 24 24"><path d="m21 21-4.34-4.34" /><circle cx="11" cy="11" r="8" /></symbol><symbol id="plus" viewBox="0 0 24 24"><path d="M5 12h14" /><path d="M12 5v14" /></symbol><symbol id="pencil" viewBox="0 0 24 24"><path d="M21.174 6.812a1 1 0 0 0-3.986-3.987L3.842 16.174a2 2 0 0 0-.5.83l-1.321 4.352a.5.5 0 0 0 .623.622l4.353-1.32a2 2 0 0 0 .83-.497z" /><path d="m15 5 4 4" /></symbol><symbol id="save" viewBox="0 0 24 24"><path d="M15.2 3a2 2 0 0 1 1.4.6l3.8 3.8a2 2 0 0 1 .6 1.4V19a2 2 0 0 1-2 2H5a2 2 0 0 1-2-2V5a2 2 0 0 1 2-2z" /><path d="M17 21v-7a1 1 0 0 0-1-1H8a1 1 0 0 0-1 1v7" /><path d="M7 3v4a1 1 0 0 0 1 1h7" /></symbol><symbol id="trash" viewBox="0 0 24 24"><path d="M10 11v6" /><path d="M14 11v6" /><path d="M19 6v14a2 2 0 0 1-2 2H7a2 2 0 0 1-2-2V6" /><path d="M3 6h18" /><path d="M8 6V4a2 2 0 0 1 2-2h4a2 2 0 0 1 2 2v2" /></symbol><symbol id="copy" viewBox="0 0 24 24"><rect width="14" height="14" x="8" y="8" rx="2" ry="2" /><path d="M4 16c-1.1 0-2-.9-2-2V4c0-1.1.9-2 2-2h10c1.1 0 2 .9 2 2" /></symbol><symbol id="check" viewBox="0 0 24 24"><path d="M20 6 9 17l-5-5" /></symbol><symbol id="x" viewBox="0 0 24 24"><path d="M18 6 6 18" /><path d="m6 6 12 12" /></symbol><symbol id="refresh" viewBox="0 0 24 24"><path d="M3 12a9 9 0 0 1 9-9 9.75 9.75 0 0 1 6.74 2.74L21 8" /><path d="M21 3v5h-5" /><path d="M21 12a9 9 0 0 1-9 9 9.75 9.75 0 0 1-6.74-2.74L3 16" /><path d="M8 16H3v5" /></symbol><symbol id="undo" viewBox="0 0 24 24"><path d="M9 14 4 9l5-5" /><path d="M4 9h10.5a5.5 5.5 0 0 1 5.5 5.5a5.5 5.5 0 0 1-5.5 5.5H11" /></symbol><symbol id="redo" viewBox="0 0 24 24"><path d="m15 14 5-5-5-5" /><path d="M20 9H9.5A5.5 5.5 0 0 0 4 14.5A5.5 5.5 0 0 0 9.5 20H13" /></symbol><symbol id="eye" viewBox="0 0 24 24"><path d="M2.062 12.348a1 1 0 0 1 0-.696 10.75 10.75 0 0 1 19.876 0 1 1 0 0 1 0 .696 10.75 10.75 0 0 1-19.876 0" /><circle cx="12" cy="12" r="3" /></symbol><symbol id="eye-off" viewBox="0 0 24 24"><path d="M10.733 5.076a10.744 10.744 0 0 1 11.205 6.575 1 1 0 0 1 0 .696 10.747 10.747 0 0 1-1.444 2.49" /><path d="M14.084 14.158a3 3 0 0 1-4.242-4.242" /><path d="M17.479 17.499a10.75 10.75 0 0 1-15.417-5.151 1 1 0 0 1 0-.696 10.75 10.75 0 0 1 4.446-5.143" /><path d="m2 2 20 20" /></symbol><symbol id="filter" viewBox="0 0 24 24"><path d="M10 20a1 1 0 0 0 .553.895l2 1A1 1 0 0 0 14 21v-7a2 2 0 0 1 .517-1.341L21.74 4.67A1 1 0 0 0 21 3H3a1 1 0 0 0-.742 1.67l7.225 7.989A2 2 0 0 1 10 14z" /></symbol><symbol id="sliders" viewBox="0 0 24 24"><path d="M10 5H3" /><path d="M12 19H3" /><path d="M14 3v4" /><path d="M16 17v4" /><path d="M21 12h-9" /><path d="M21 19h-5" /><path d="M21 5h-7" /><path d="M8 10v4" /><path d="M8 12H3" /></symbol><symbol id="file" viewBox="0 0 24 24"><path d="M6 22a2 2 0 0 1-2-2V4a2 2 0 0 1 2-2h8a2.4 2.4 0 0 1 1.704.706l3.588 3.588A2.4 2.4 0 0 1 20 8v12a2 2 0 0 1-2 2z" /><path d="M14 2v5a1 1 0 0 0 1 1h5" /></symbol><symbol id="file-text" viewBox="0 0 24 24"><path d="M6 22a2 2 0 0 1-2-2V4a2 2 0 0 1 2-2h8a2.4 2.4 0 0 1 1.704.706l3.588 3.588A2.4 2.4 0 0 1 20 8v12a2 2 0 0 1-2 2z" /><path d="M14 2v5a1 1 0 0 0 1 1h5" /><path d="M10 9H8" /><path d="M16 13H8" /><path d="M16 17H8" /></symbol><symbol id="file-plus" viewBox="0 0 24 24"><path d="M6 22a2 2 0 0 1-2-2V4a2 2 0 0 1 2-2h8a2.4 2.4 0 0 1 1.704.706l3.588 3.588A2.4 2.4 0 0 1 20 8v12a2 2 0 0 1-2 2z" /><path d="M14 2v5a1 1 0 0 0 1 1h5" /><path d="M9 15h6" /><path d="M12 18v-6" /></symbol><symbol id="file-check" viewBox="0 0 24 24"><path d="M6 22a2 2 0 0 1-2-2V4a2 2 0 0 1 2-2h8a2.4 2.4 0 0 1 1.704.706l3.588 3.588A2.4 2.4 0 0 1 20 8v12a2 2 0 0 1-2 2z" /><path d="M14 2v5a1 1 0 0 0 1 1h5" /><path d="m9 15 2 2 4-4" /></symbol><symbol id="file-search" viewBox="0 0 24 24"><path d="M6 22a2 2 0 0 1-2-2V4a2 2 0 0 1 2-2h8a2.4 2.4 0 0 1 1.704.706l3.588 3.588A2.4 2.4 0 0 1 20 8v12a2 2 0 0 1-2 2z" /><path d="M14 2v5a1 1 0 0 0 1 1h5" /><circle cx="11.5" cy="14.5" r="2.5" /><path d="M13.3 16.3 15 18" /></symbol><symbol id="files" viewBox="0 0 24 24"><path d="M15 2h-4a2 2 0 0 0-2 2v11a2 2 0 0 0 2 2h8a2 2 0 0 0 2-2V8" /><path d="M16.706 2.706A2.4 2.4 0 0 0 15 2v5a1 1 0 0 0 1 1h5a2.4 2.4 0 0 0-.706-1.706z" /><path d="M5 7a2 2 0 0 0-2 2v11a2 2 0 0 0 2 2h8a2 2 0 0 0 1.732-1" /></symbol><symbol id="folder" viewBox="0 0 24 24"><path d="M20 20a2 2 0 0 0 2-2V8a2 2 0 0 0-2-2h-7.9a2 2 0 0 1-1.69-.9L9.6 3.9A2 2 0 0 0 7.93 3H4a2 2 0 0 0-2 2v13a2 2 0 0 0 2 2Z" /></symbol><symbol id="folder-open" viewBox="0 0 24 24"><path d="m6 14 1.5-2.9A2 2 0 0 1 9.24 10H20a2 2 0 0 1 1.94 2.5l-1.54 6a2 2 0 0 1-1.95 1.5H4a2 2 0 0 1-2-2V5a2 2 0 0 1 2-2h3.9a2 2 0 0 1 1.69.9l.81 1.2a2 2 0 0 0 1.67.9H18a2 2 0 0 1 2 2v2" /></symbol><symbol id="paperclip" viewBox="0 0 24 24"><path d="m16 6-8.414 8.586a2 2 0 0 0 2.829 2.829l8.414-8.586a4 4 0 1 0-5.657-5.657l-8.379 8.551a6 6 0 1 0 8.485 8.485l8.379-8.551" /></symbol><symbol id="upload" viewBox="0 0 24 24"><path d="M12 3v12" /><path d="m17 8-5-5-5 5" /><path d="M21 15v4a2 2 0 0 1-2 2H5a2 2 0 0 1-2-2v-4" /></symbol><symbol id="download" viewBox="0 0 24 24"><path d="M12 15V3" /><path d="M21 15v4a2 2 0 0 1-2 2H5a2 2 0 0 1-2-2v-4" /><path d="m7 10 5 5 5-5" /></symbol><symbol id="printer" viewBox="0 0 24 24"><path d="M6 18H4a2 2 0 0 1-2-2v-5a2 2 0 0 1 2-2h16a2 2 0 0 1 2 2v5a2 2 0 0 1-2 2h-2" /><path d="M6 9V3a1 1 0 0 1 1-1h10a1 1 0 0 1 1 1v6" /><rect x="6" y="14" width="12" height="8" rx="1" /></symbol><symbol id="spreadsheet" viewBox="0 0 24 24"><path d="M6 22a2 2 0 0 1-2-2V4a2 2 0 0 1 2-2h8a2.4 2.4 0 0 1 1.704.706l3.588 3.588A2.4 2.4 0 0 1 20 8v12a2 2 0 0 1-2 2z" /><path d="M14 2v5a1 1 0 0 0 1 1h5" /><path d="M8 13h2" /><path d="M14 13h2" /><path d="M8 17h2" /><path d="M14 17h2" /></symbol><symbol id="archive" viewBox="0 0 24 24"><rect width="20" height="5" x="2" y="3" rx="1" /><path d="M4 8v11a2 2 0 0 0 2 2h12a2 2 0 0 0 2-2V8" /><path d="M10 12h4" /></symbol><symbol id="clipboard" viewBox="0 0 24 24"><rect width="8" height="4" x="8" y="2" rx="1" ry="1" /><path d="M16 4h2a2 2 0 0 1 2 2v14a2 2 0 0 1-2 2H6a2 2 0 0 1-2-2V6a2 2 0 0 1 2-2h2" /></symbol><symbol id="clipboard-check" viewBox="0 0 24 24"><rect width="8" height="4" x="8" y="2" rx="1" ry="1" /><path d="M16 4h2a2 2 0 0 1 2 2v14a2 2 0 0 1-2 2H6a2 2 0 0 1-2-2V6a2 2 0 0 1 2-2h2" /><path d="m9 14 2 2 4-4" /></symbol><symbol id="image" viewBox="0 0 24 24"><rect width="18" height="18" x="3" y="3" rx="2" ry="2" /><circle cx="9" cy="9" r="2" /><path d="m21 15-3.086-3.086a2 2 0 0 0-2.828 0L6 21" /></symbol><symbol id="arrow-left" viewBox="0 0 24 24"><path d="m12 19-7-7 7-7" /><path d="M19 12H5" /></symbol><symbol id="arrow-right" viewBox="0 0 24 24"><path d="M5 12h14" /><path d="m12 5 7 7-7 7" /></symbol><symbol id="arrow-up" viewBox="0 0 24 24"><path d="m5 12 7-7 7 7" /><path d="M12 19V5" /></symbol><symbol id="arrow-down" viewBox="0 0 24 24"><path d="M12 5v14" /><path d="m19 12-7 7-7-7" /></symbol><symbol id="chevron-left" viewBox="0 0 24 24"><path d="m15 18-6-6 6-6" /></symbol><symbol id="chevron-right" viewBox="0 0 24 24"><path d="m9 18 6-6-6-6" /></symbol><symbol id="chevron-up" viewBox="0 0 24 24"><path d="m18 15-6-6-6 6" /></symbol><symbol id="chevron-down" viewBox="0 0 24 24"><path d="m6 9 6 6 6-6" /></symbol><symbol id="first-page" viewBox="0 0 24 24"><path d="m11 17-5-5 5-5" /><path d="m18 17-5-5 5-5" /></symbol><symbol id="last-page" viewBox="0 0 24 24"><path d="m6 17 5-5-5-5" /><path d="m13 17 5-5-5-5" /></symbol><symbol id="external-link" viewBox="0 0 24 24"><path d="M15 3h6v6" /><path d="M10 14 21 3" /><path d="M18 13v6a2 2 0 0 1-2 2H5a2 2 0 0 1-2-2V8a2 2 0 0 1 2-2h6" /></symbol><symbol id="link" viewBox="0 0 24 24"><path d="M10 13a5 5 0 0 0 7.54.54l3-3a5 5 0 0 0-7.07-7.07l-1.72 1.71" /><path d="M14 11a5 5 0 0 0-7.54-.54l-3 3a5 5 0 0 0 7.07 7.07l1.71-1.71" /></symbol><symbol id="home" viewBox="0 0 24 24"><path d="M15 21v-8a1 1 0 0 0-1-1h-4a1 1 0 0 0-1 1v8" /><path d="M3 10a2 2 0 0 1 .709-1.528l7-6a2 2 0 0 1 2.582 0l7 6A2 2 0 0 1 21 10v9a2 2 0 0 1-2 2H5a2 2 0 0 1-2-2z" /></symbol><symbol id="menu" viewBox="0 0 24 24"><path d="M4 5h16" /><path d="M4 12h16" /><path d="M4 19h16" /></symbol><symbol id="more-horizontal" viewBox="0 0 24 24"><circle cx="12" cy="12" r="1" /><circle cx="19" cy="12" r="1" /><circle cx="5" cy="12" r="1" /></symbol><symbol id="more-vertical" viewBox="0 0 24 24"><circle cx="12" cy="12" r="1" /><circle cx="12" cy="5" r="1" /><circle cx="12" cy="19" r="1" /></symbol><symbol id="maximize" viewBox="0 0 24 24"><path d="M15 3h6v6" /><path d="m21 3-7 7" /><path d="m3 21 7-7" /><path d="M9 21H3v-6" /></symbol><symbol id="minimize" viewBox="0 0 24 24"><path d="m14 10 7-7" /><path d="M20 10h-6V4" /><path d="m3 21 7-7" /><path d="M4 14h6v6" /></symbol><symbol id="panel-left" viewBox="0 0 24 24"><rect width="18" height="18" x="3" y="3" rx="2" /><path d="M9 3v18" /></symbol><symbol id="grid" viewBox="0 0 24 24"><rect width="7" height="7" x="3" y="3" rx="1" /><rect width="7" height="7" x="14" y="3" rx="1" /><rect width="7" height="7" x="14" y="14" rx="1" /><rect width="7" height="7" x="3" y="14" rx="1" /></symbol><symbol id="list" viewBox="0 0 24 24"><path d="M3 5h.01" /><path d="M3 12h.01" /><path d="M3 19h.01" /><path d="M8 5h13" /><path d="M8 12h13" /><path d="M8 19h13" /></symbol><symbol id="grip" viewBox="0 0 24 24"><circle cx="9" cy="12" r="1" /><circle cx="9" cy="5" r="1" /><circle cx="9" cy="19" r="1" /><circle cx="15" cy="12" r="1" /><circle cx="15" cy="5" r="1" /><circle cx="15" cy="19" r="1" /></symbol><symbol id="info" viewBox="0 0 24 24"><circle cx="12" cy="12" r="10" /><path d="M12 16v-4" /><path d="M12 8h.01" /></symbol><symbol id="help" viewBox="0 0 24 24"><circle cx="12" cy="12" r="10" /><path d="M9.09 9a3 3 0 0 1 5.83 1c0 2-3 3-3 3" /><path d="M12 17h.01" /></symbol><symbol id="warning" viewBox="0 0 24 24"><path d="m21.73 18-8-14a2 2 0 0 0-3.48 0l-8 14A2 2 0 0 0 4 21h16a2 2 0 0 0 1.73-3" /><path d="M12 9v4" /><path d="M12 17h.01" /></symbol><symbol id="error" viewBox="0 0 24 24"><circle cx="12" cy="12" r="10" /><path d="m15 9-6 6" /><path d="m9 9 6 6" /></symbol><symbol id="success" viewBox="0 0 24 24"><circle cx="12" cy="12" r="10" /><path d="m9 12 2 2 4-4" /></symbol><symbol id="pending" viewBox="0 0 24 24"><circle cx="12" cy="12" r="10" /><path d="M12 6v6l4 2" /></symbol><symbol id="loader" viewBox="0 0 24 24"><path d="M21 12a9 9 0 1 1-6.219-8.56" /></symbol><symbol id="bell" viewBox="0 0 24 24"><path d="M10.268 21a2 2 0 0 0 3.464 0" /><path d="M3.262 15.326A1 1 0 0 0 4 17h16a1 1 0 0 0 .74-1.673C19.41 13.956 18 12.499 18 8A6 6 0 0 0 6 8c0 4.499-1.411 5.956-2.738 7.326" /></symbol><symbol id="bell-off" viewBox="0 0 24 24"><path d="M10.268 21a2 2 0 0 0 3.464 0" /><path d="M17 17H4a1 1 0 0 1-.74-1.673C4.59 13.956 6 12.499 6 8a6 6 0 0 1 .258-1.742" /><path d="m2 2 20 20" /><path d="M8.668 3.01A6 6 0 0 1 18 8c0 2.687.77 4.653 1.707 6.05" /></symbol><symbol id="ban" viewBox="0 0 24 24"><circle cx="12" cy="12" r="10" /><path d="M4.929 4.929 19.07 19.071" /></symbol><symbol id="flag" viewBox="0 0 24 24"><path d="M4 22V4a1 1 0 0 1 .4-.8A6 6 0 0 1 8 2c3 0 5 2 7.333 2q2 0 3.067-.8A1 1 0 0 1 20 4v10a1 1 0 0 1-.4.8A6 6 0 0 1 16 16c-3 0-5-2-8-2a6 6 0 0 0-4 1.528" /></symbol><symbol id="bookmark" viewBox="0 0 24 24"><path d="M17 3a2 2 0 0 1 2 2v15a1 1 0 0 1-1.496.868l-4.512-2.578a2 2 0 0 0-1.984 0l-4.512 2.578A1 1 0 0 1 5 20V5a2 2 0 0 1 2-2z" /></symbol><symbol id="star" viewBox="0 0 24 24"><path d="M11.525 2.295a.53.53 0 0 1 .95 0l2.31 4.679a2.123 2.123 0 0 0 1.595 1.16l5.166.756a.53.53 0 0 1 .294.904l-3.736 3.638a2.123 2.123 0 0 0-.611 1.878l.882 5.14a.53.53 0 0 1-.771.56l-4.618-2.428a2.122 2.122 0 0 0-1.973 0L6.396 21.01a.53.53 0 0 1-.77-.56l.881-5.139a2.122 2.122 0 0 0-.611-1.879L2.16 9.795a.53.53 0 0 1 .294-.906l5.165-.755a2.122 2.122 0 0 0 1.597-1.16z" /></symbol><symbol id="user" viewBox="0 0 24 24"><path d="M19 21v-2a4 4 0 0 0-4-4H9a4 4 0 0 0-4 4v2" /><circle cx="12" cy="7" r="4" /></symbol><symbol id="users" viewBox="0 0 24 24"><path d="M16 21v-2a4 4 0 0 0-4-4H6a4 4 0 0 0-4 4v2" /><path d="M16 3.128a4 4 0 0 1 0 7.744" /><path d="M22 21v-2a4 4 0 0 0-3-3.87" /><circle cx="9" cy="7" r="4" /></symbol><symbol id="user-plus" viewBox="0 0 24 24"><path d="M16 21v-2a4 4 0 0 0-4-4H6a4 4 0 0 0-4 4v2" /><circle cx="9" cy="7" r="4" /><line x1="19" x2="19" y1="8" y2="14" /><line x1="22" x2="16" y1="11" y2="11" /></symbol><symbol id="user-check" viewBox="0 0 24 24"><path d="m16 11 2 2 4-4" /><path d="M16 21v-2a4 4 0 0 0-4-4H6a4 4 0 0 0-4 4v2" /><circle cx="9" cy="7" r="4" /></symbol><symbol id="building" viewBox="0 0 24 24"><path d="M10 12h4" /><path d="M10 8h4" /><path d="M14 21v-3a2 2 0 0 0-4 0v3" /><path d="M6 10H4a2 2 0 0 0-2 2v7a2 2 0 0 0 2 2h16a2 2 0 0 0 2-2V9a2 2 0 0 0-2-2h-2" /><path d="M6 21V5a2 2 0 0 1 2-2h8a2 2 0 0 1 2 2v16" /></symbol><symbol id="network" viewBox="0 0 24 24"><rect x="16" y="16" width="6" height="6" rx="1" /><rect x="2" y="16" width="6" height="6" rx="1" /><rect x="9" y="2" width="6" height="6" rx="1" /><path d="M5 16v-3a1 1 0 0 1 1-1h12a1 1 0 0 1 1 1v3" /><path d="M12 12V8" /></symbol><symbol id="contact" viewBox="0 0 24 24"><path d="M16 2v2" /><path d="M7 22v-2a2 2 0 0 1 2-2h6a2 2 0 0 1 2 2v2" /><path d="M8 2v2" /><circle cx="12" cy="11" r="3" /><rect x="3" y="4" width="18" height="18" rx="2" /></symbol><symbol id="mail" viewBox="0 0 24 24"><path d="m22 7-8.991 5.727a2 2 0 0 1-2.009 0L2 7" /><rect x="2" y="4" width="20" height="16" rx="2" /></symbol><symbol id="phone" viewBox="0 0 24 24"><path d="M13.832 16.568a1 1 0 0 0 1.213-.303l.355-.465A2 2 0 0 1 17 15h3a2 2 0 0 1 2 2v3a2 2 0 0 1-2 2A18 18 0 0 1 2 4a2 2 0 0 1 2-2h3a2 2 0 0 1 2 2v3a2 2 0 0 1-.8 1.6l-.468.351a1 1 0 0 0-.292 1.233 14 14 0 0 0 6.392 6.384" /></symbol><symbol id="message" viewBox="0 0 24 24"><path d="M22 17a2 2 0 0 1-2 2H6.828a2 2 0 0 0-1.414.586l-2.202 2.202A.71.71 0 0 1 2 21.286V5a2 2 0 0 1 2-2h16a2 2 0 0 1 2 2z" /></symbol><symbol id="send" viewBox="0 0 24 24"><path d="M14.536 21.686a.5.5 0 0 0 .937-.024l6.5-19a.496.496 0 0 0-.635-.635l-19 6.5a.5.5 0 0 0-.024.937l7.93 3.18a2 2 0 0 1 1.112 1.11z" /><path d="m21.854 2.147-10.94 10.939" /></symbol><symbol id="calendar" viewBox="0 0 24 24"><path d="M8 2v4" /><path d="M16 2v4" /><rect width="18" height="18" x="3" y="4" rx="2" /><path d="M3 10h18" /></symbol><symbol id="calendar-range" viewBox="0 0 24 24"><rect width="18" height="18" x="3" y="4" rx="2" /><path d="M16 2v4" /><path d="M3 10h18" /><path d="M8 2v4" /><path d="M17 14h-6" /><path d="M13 18H7" /><path d="M7 14h.01" /><path d="M17 18h.01" /></symbol><symbol id="calendar-check" viewBox="0 0 24 24"><path d="M8 2v4" /><path d="M16 2v4" /><rect width="18" height="18" x="3" y="4" rx="2" /><path d="M3 10h18" /><path d="m9 16 2 2 4-4" /></symbol><symbol id="history" viewBox="0 0 24 24"><path d="M3 12a9 9 0 1 0 9-9 9.75 9.75 0 0 0-6.74 2.74L3 8" /><path d="M3 3v5h5" /><path d="M12 7v5l4 2" /></symbol><symbol id="stamp" viewBox="0 0 24 24"><path d="M14 13V8.5C14 7 15 7 15 5a3 3 0 0 0-6 0c0 2 1 2 1 3.5V13" /><path d="M20 15.5a2.5 2.5 0 0 0-2.5-2.5h-11A2.5 2.5 0 0 0 4 15.5V17a1 1 0 0 0 1 1h14a1 1 0 0 0 1-1z" /><path d="M5 22h14" /></symbol><symbol id="workflow" viewBox="0 0 24 24"><rect width="8" height="8" x="3" y="3" rx="2" /><path d="M7 11v4a2 2 0 0 0 2 2h4" /><rect width="8" height="8" x="13" y="13" rx="2" /></symbol><symbol id="list-checks" viewBox="0 0 24 24"><path d="M13 5h8" /><path d="M13 12h8" /><path d="M13 19h8" /><path d="m3 17 2 2 4-4" /><path d="m3 7 2 2 4-4" /></symbol><symbol id="wallet" viewBox="0 0 24 24"><path d="M19 7V4a1 1 0 0 0-1-1H5a2 2 0 0 0 0 4h15a1 1 0 0 1 1 1v4h-3a2 2 0 0 0 0 4h3a1 1 0 0 0 1-1v-2a1 1 0 0 0-1-1" /><path d="M3 5v14a2 2 0 0 0 2 2h15a1 1 0 0 0 1-1v-4" /></symbol><symbol id="credit-card" viewBox="0 0 24 24"><rect width="20" height="14" x="2" y="5" rx="2" /><line x1="2" x2="22" y1="10" y2="10" /></symbol><symbol id="receipt" viewBox="0 0 24 24"><path d="M12 17V7" /><path d="M16 8h-6a2 2 0 0 0 0 4h4a2 2 0 0 1 0 4H8" /><path d="M4 3a1 1 0 0 1 1-1 1.3 1.3 0 0 1 .7.2l.933.6a1.3 1.3 0 0 0 1.4 0l.934-.6a1.3 1.3 0 0 1 1.4 0l.933.6a1.3 1.3 0 0 0 1.4 0l.933-.6a1.3 1.3 0 0 1 1.4 0l.934.6a1.3 1.3 0 0 0 1.4 0l.933-.6A1.3 1.3 0 0 1 19 2a1 1 0 0 1 1 1v18a1 1 0 0 1-1 1 1.3 1.3 0 0 1-.7-.2l-.933-.6a1.3 1.3 0 0 0-1.4 0l-.934.6a1.3 1.3 0 0 1-1.4 0l-.933-.6a1.3 1.3 0 0 0-1.4 0l-.933.6a1.3 1.3 0 0 1-1.4 0l-.934-.6a1.3 1.3 0 0 0-1.4 0l-.933.6a1.3 1.3 0 0 1-.7.2 1 1 0 0 1-1-1z" /></symbol><symbol id="bank" viewBox="0 0 24 24"><path d="M10 18v-7" /><path d="M11.12 2.198a2 2 0 0 1 1.76.006l7.866 3.847c.476.233.31.949-.22.949H3.474c-.53 0-.695-.716-.22-.949z" /><path d="M14 18v-7" /><path d="M18 18v-7" /><path d="M3 22h18" /><path d="M6 18v-7" /></symbol><symbol id="calculator" viewBox="0 0 24 24"><rect width="16" height="20" x="4" y="2" rx="2" /><line x1="8" x2="16" y1="6" y2="6" /><line x1="16" x2="16" y1="14" y2="18" /><path d="M16 10h.01" /><path d="M12 10h.01" /><path d="M8 10h.01" /><path d="M12 14h.01" /><path d="M8 14h.01" /><path d="M12 18h.01" /><path d="M8 18h.01" /></symbol><symbol id="percent" viewBox="0 0 24 24"><line x1="19" x2="5" y1="5" y2="19" /><circle cx="6.5" cy="6.5" r="2.5" /><circle cx="17.5" cy="17.5" r="2.5" /></symbol><symbol id="coins" viewBox="0 0 24 24"><path d="M13.744 17.736a6 6 0 1 1-7.48-7.48" /><path d="M15 6h1v4" /><path d="m6.134 14.768.866-.5 2 3.464" /><circle cx="16" cy="8" r="6" /></symbol><symbol id="package" viewBox="0 0 24 24"><path d="M11 21.73a2 2 0 0 0 2 0l7-4A2 2 0 0 0 21 16V8a2 2 0 0 0-1-1.73l-7-4a2 2 0 0 0-2 0l-7 4A2 2 0 0 0 3 8v8a2 2 0 0 0 1 1.73z" /><path d="M12 22V12" /><polyline points="3.29 7 12 12 20.71 7" /><path d="m7.5 4.27 9 5.15" /></symbol><symbol id="truck" viewBox="0 0 24 24"><path d="M14 18V6a2 2 0 0 0-2-2H4a2 2 0 0 0-2 2v11a1 1 0 0 0 1 1h2" /><path d="M15 18H9" /><path d="M19 18h2a1 1 0 0 0 1-1v-3.65a1 1 0 0 0-.22-.624l-3.48-4.35A1 1 0 0 0 17.52 8H14" /><circle cx="17" cy="18" r="2" /><circle cx="7" cy="18" r="2" /></symbol><symbol id="warehouse" viewBox="0 0 24 24"><path d="M18 21V10a1 1 0 0 0-1-1H7a1 1 0 0 0-1 1v11" /><path d="M22 19a2 2 0 0 1-2 2H4a2 2 0 0 1-2-2V8a2 2 0 0 1 1.132-1.803l7.95-3.974a2 2 0 0 1 1.837 0l7.948 3.974A2 2 0 0 1 22 8z" /><path d="M6 13h12" /><path d="M6 17h12" /></symbol><symbol id="shopping-cart" viewBox="0 0 24 24"><circle cx="8" cy="21" r="1" /><circle cx="19" cy="21" r="1" /><path d="M2.05 2.05h2l2.66 12.42a2 2 0 0 0 2 1.58h9.78a2 2 0 0 0 1.95-1.57l1.65-7.43H5.12" /></symbol><symbol id="database" viewBox="0 0 24 24"><ellipse cx="12" cy="5" rx="9" ry="3" /><path d="M3 5V19A9 3 0 0 0 21 19V5" /><path d="M3 12A9 3 0 0 0 21 12" /></symbol><symbol id="table" viewBox="0 0 24 24"><path d="M9 3H5a2 2 0 0 0-2 2v4m6-6h10a2 2 0 0 1 2 2v4M9 3v18m0 0h10a2 2 0 0 0 2-2V9M9 21H5a2 2 0 0 1-2-2V9m0 0h18" /></symbol><symbol id="chart-bar" viewBox="0 0 24 24"><path d="M3 3v16a2 2 0 0 0 2 2h16" /><path d="M18 17V9" /><path d="M13 17V5" /><path d="M8 17v-3" /></symbol><symbol id="chart-line" viewBox="0 0 24 24"><path d="M3 3v16a2 2 0 0 0 2 2h16" /><path d="m19 9-5 5-4-4-3 3" /></symbol><symbol id="chart-pie" viewBox="0 0 24 24"><path d="M21 12c.552 0 1.005-.449.95-.998a10 10 0 0 0-8.953-8.951c-.55-.055-.998.398-.998.95v8a1 1 0 0 0 1 1z" /><path d="M21.21 15.89A10 10 0 1 1 8 2.83" /></symbol><symbol id="trend-up" viewBox="0 0 24 24"><path d="M16 7h6v6" /><path d="m22 7-8.5 8.5-5-5L2 17" /></symbol><symbol id="trend-down" viewBox="0 0 24 24"><path d="M16 17h6v-6" /><path d="m22 17-8.5-8.5-5 5L2 7" /></symbol><symbol id="sort" viewBox="0 0 24 24"><path d="m21 16-4 4-4-4" /><path d="M17 20V4" /><path d="m3 8 4-4 4 4" /><path d="M7 4v16" /></symbol><symbol id="sort-asc" viewBox="0 0 24 24"><path d="m3 8 4-4 4 4" /><path d="M7 4v16" /><path d="M11 12h4" /><path d="M11 16h7" /><path d="M11 20h10" /></symbol><symbol id="sort-desc" viewBox="0 0 24 24"><path d="m3 16 4 4 4-4" /><path d="M7 20V4" /><path d="M11 4h10" /><path d="M11 8h7" /><path d="M11 12h4" /></symbol><symbol id="target" viewBox="0 0 24 24"><circle cx="12" cy="12" r="10" /><circle cx="12" cy="12" r="6" /><circle cx="12" cy="12" r="2" /></symbol><symbol id="layers" viewBox="0 0 24 24"><path d="M12.83 2.18a2 2 0 0 0-1.66 0L2.6 6.08a1 1 0 0 0 0 1.83l8.58 3.91a2 2 0 0 0 1.66 0l8.58-3.9a1 1 0 0 0 0-1.83z" /><path d="M2 12a1 1 0 0 0 .58.91l8.6 3.91a2 2 0 0 0 1.65 0l8.58-3.9A1 1 0 0 0 22 12" /><path d="M2 17a1 1 0 0 0 .58.91l8.6 3.91a2 2 0 0 0 1.65 0l8.58-3.9A1 1 0 0 0 22 17" /></symbol><symbol id="settings" viewBox="0 0 24 24"><path d="M9.671 4.136a2.34 2.34 0 0 1 4.659 0 2.34 2.34 0 0 0 3.319 1.915 2.34 2.34 0 0 1 2.33 4.033 2.34 2.34 0 0 0 0 3.831 2.34 2.34 0 0 1-2.33 4.033 2.34 2.34 0 0 0-3.319 1.915 2.34 2.34 0 0 1-4.659 0 2.34 2.34 0 0 0-3.32-1.915 2.34 2.34 0 0 1-2.33-4.033 2.34 2.34 0 0 0 0-3.831A2.34 2.34 0 0 1 6.35 6.051a2.34 2.34 0 0 0 3.319-1.915" /><circle cx="12" cy="12" r="3" /></symbol><symbol id="lock" viewBox="0 0 24 24"><rect width="18" height="11" x="3" y="11" rx="2" ry="2" /><path d="M7 11V7a5 5 0 0 1 10 0v4" /></symbol><symbol id="unlock" viewBox="0 0 24 24"><rect width="18" height="11" x="3" y="11" rx="2" ry="2" /><path d="M7 11V7a5 5 0 0 1 9.9-1" /></symbol><symbol id="shield-check" viewBox="0 0 24 24"><path d="M20 13c0 5-3.5 7.5-7.66 8.95a1 1 0 0 1-.67-.01C7.5 20.5 4 18 4 13V6a1 1 0 0 1 1-1c2 0 4.5-1.2 6.24-2.72a1.17 1.17 0 0 1 1.52 0C14.51 3.81 17 5 19 5a1 1 0 0 1 1 1z" /><path d="m9 12 2 2 4-4" /></symbol><symbol id="key" viewBox="0 0 24 24"><path d="M2.586 17.414A2 2 0 0 0 2 18.828V21a1 1 0 0 0 1 1h3a1 1 0 0 0 1-1v-1a1 1 0 0 1 1-1h1a1 1 0 0 0 1-1v-1a1 1 0 0 1 1-1h.172a2 2 0 0 0 1.414-.586l.814-.814a6.5 6.5 0 1 0-4-4z" /><circle cx="16.5" cy="7.5" r=".5" fill="currentColor" /></symbol><symbol id="log-in" viewBox="0 0 24 24"><path d="m10 17 5-5-5-5" /><path d="M15 12H3" /><path d="M15 3h4a2 2 0 0 1 2 2v14a2 2 0 0 1-2 2h-4" /></symbol><symbol id="log-out" viewBox="0 0 24 24"><path d="m16 17 5-5-5-5" /><path d="M21 12H9" /><path d="M9 21H5a2 2 0 0 1-2-2V5a2 2 0 0 1 2-2h4" /></symbol><symbol id="monitor" viewBox="0 0 24 24"><rect width="20" height="14" x="2" y="3" rx="2" /><line x1="8" x2="16" y1="21" y2="21" /><line x1="12" x2="12" y1="17" y2="21" /></symbol><symbol id="smartphone" viewBox="0 0 24 24"><rect width="14" height="20" x="5" y="2" rx="2" ry="2" /><path d="M12 18h.01" /></symbol><symbol id="server" viewBox="0 0 24 24"><rect width="20" height="8" x="2" y="2" rx="2" ry="2" /><rect width="20" height="8" x="2" y="14" rx="2" ry="2" /><line x1="6" x2="6.01" y1="6" y2="6" /><line x1="6" x2="6.01" y1="18" y2="18" /></symbol><symbol id="code" viewBox="0 0 24 24"><path d="m16 18 6-6-6-6" /><path d="m8 6-6 6 6 6" /></symbol><symbol id="terminal" viewBox="0 0 24 24"><path d="M12 19h8" /><path d="m4 17 6-6-6-6" /></symbol><symbol id="play" viewBox="0 0 24 24"><polygon points="8 5 19 12 8 19" /></symbol><symbol id="pause" viewBox="0 0 24 24"><rect x="6" y="5" width="4" height="14" rx="1" /><rect x="14" y="5" width="4" height="14" rx="1" /></symbol><symbol id="stop" viewBox="0 0 24 24"><rect x="5" y="5" width="14" height="14" rx="1" /></symbol><symbol id="volume" viewBox="0 0 24 24"><path d="M4 9h4l5-4v14l-5-4H4z" /><path d="M16 9a5 5 0 0 1 0 6M19 6a9 9 0 0 1 0 12" /></symbol><symbol id="globe" viewBox="0 0 24 24"><circle cx="12" cy="12" r="9" /><ellipse cx="12" cy="12" rx="4" ry="9" /><path d="M3 12h18M5 6h14M5 18h14" /></symbol><symbol id="thumbs-up" viewBox="0 0 24 24"><path d="M8 10l4-7 2 1v6h5a2 2 0 0 1 2 2l-2 7a2 2 0 0 1-2 2H8zM3 10h5v11H3z" /></symbol><symbol id="zoom-in" viewBox="0 0 24 24"><circle cx="10" cy="10" r="6" /><path d="M14.5 14.5 21 21M7 10h6M10 7v6" /></symbol><symbol id="type" viewBox="0 0 24 24"><path d="M3 18 8 5l5 13M5 13h6M15 18l3-8 3 8M16 15h4" /></symbol><symbol id="toggle-left" viewBox="0 0 24 24"><rect x="2" y="6" width="20" height="12" rx="6" /><circle cx="8" cy="12" r="3" /></symbol><symbol id="toggle-right" viewBox="0 0 24 24"><rect x="2" y="6" width="20" height="12" rx="6" /><circle cx="16" cy="12" r="3" /></symbol><symbol id="square" viewBox="0 0 24 24"><rect x="4" y="4" width="16" height="16" rx="2" /></symbol><symbol id="square-check" viewBox="0 0 24 24"><rect x="4" y="4" width="16" height="16" rx="2" /><path d="m8 12 3 3 5-6" /></symbol><symbol id="share" viewBox="0 0 24 24"><circle cx="6" cy="12" r="3" /><circle cx="18" cy="5" r="3" /><circle cx="18" cy="19" r="3" /><path d="m8.5 10.5 7-4M8.5 13.5l7 4" /></symbol></svg>